<?xml version="1.0" standalone="no"?>
<!DOCTYPE svg PUBLIC "-//DTD SVG 1.1//EN" "http://w3.org/Graphics/SVG/1.1/DTD/svg11.dtd">
<svg xmlns="http://www.w3.org/2000/svg" version="1.1" width="124mm" height="208.25mm" viewBox="-10.9 -16.825 12.4 20.825">
<defs>
<style type="text/css"><![CDATA[
.cns_pen_style1 {stroke: #000000;stroke-width: 0.05;}
.cns_pen_style2 {stroke: #808080;stroke-width: 0.025;}
.cns_pen_style3 {stroke: #c6c6c6;stroke-width: 0.025;stroke-dasharray: 0.2, 0.1}
.cns_pen_style4 {stroke: #ff0000;stroke-width: 0.025;stroke-dasharray: 0.04, 0.1, 0.2, 0.1}
.cns_text {stroke-width: 0.0001;}
]]></style>
</defs>

<path class="cns_pen_style4" d="M-4.62 -1.7 h 4.84 
M-9.62 -1.7 h 4.84 
M-4.62 -1.8 h 4.84 
M-9.62 -1.8 h 4.84 
M-1.8 -16.825 v 2.75 
M-6.8 -16.825 v 2.75 
" fill="none"/>
<path class="cns_pen_style3" d="M-9.29717 -13 v -3.2 
M-4.29717 -13 v -3.2 
M-10 -16.2 h 0.702833 
M-3.3 -16.2 h 4.8 
M-8.3 -16.2 h 4.00283 
M-4.29717 -13 h 0.997167 
M-9.29717 -13 h 0.997167 
M-3.35858 -13 v -3.7 
M-3.3 -13 v -3.7 
M-8.35858 -13 v -3.7 
M-8.3 -13 v -3.7 
M-8.59142 -13 v -3.7 
M-3.59142 -13 v -3.7 
M-8.73284 -13 v -3.7 
M-9.25 -13 v -3.7 
M-4.25 -13 v -3.7 
M-3.73284 -13 v -3.7 
M-2.85 -16.4 v 2.2 
M-0.75 -14.2 v -2.2 
M-2.62462 -14.2 v -2.2 
M-7.85 -16.4 v 2.2 
M-5.75 -14.2 v -2.2 
l 0.173205 -0.3 
M-8.02321 -16.7 l 0.173205 0.3 
M-5.75 -16.4 h -2.1 
M-5.76379 -16.7 l -0.211589 0.3 
v 2.2 
M-7.68367 -16.4814 l -0.152543 -0.218626 
M-7.62462 -14.2 v -2.2 
M-0.975379 -16.4 v 2.2 
M-2.68367 -16.4814 l -0.152543 -0.218626 
M-0.76379 -16.7 l -0.211589 0.3 
M-0.75 -16.4 l 0.173205 -0.3 
M-3.02321 -16.7 l 0.173205 0.3 
M-0.75 -16.4 h -2.1 
M-5 -1.27455 h -3.4 
M-7.8 -1.63845 h 1 
M-8.4 -0.49 h 3.4 
M-6.79679e-16 -1.27455 h -3.4 
M-2.8 -1.63845 h 1 
M-3.4 -0.49 h 3.4 
M-8.7 -14.2 v -2.5 
M-3.7 -14.2 v -2.5 
M-8.62926 -1.01875 l -0.260793 0.232009 
l -0.251081 0.196644 
l -0.258862 0.187203 
M-9.32156 0 l 0.921556 -0.49 
v -1.437 
M-3.62926 -1.01875 l -0.260793 0.232009 
l -0.251081 0.196644 
l -0.258862 0.187203 
M-4.32156 0 l 0.921556 -0.49 
v -1.437 
M-10.8645 -4.51483 h 0.864488 
M-10.7174 -6.34549 v 1.78296 
M-10.759 -4.33625 h 0.758953 
M-9.4 0 v -1.927 
M-8.17367 0 l 3.17367 -0.3 
M-4.4 0 v -1.927 
M-3.17367 0 l 3.17367 -0.3 
M-10.5 -9.12433 h 0.5 
M-10.5 -9.80788 h 0.5 
M-3.75 -14.9426 h 3.6 
M-8.75 -14.9426 h 3.6 
M-10.8 -9.57697 l 0.3 -0.230914 
M-10.8 -9.40608 l 0.3 0.281749 
M-2.8 -1.927 v 1.927 
M-1.8 -1.927 v 1.927 
M-7.8 -1.927 v 1.927 
M-6.8 -1.927 v 1.927 
M-10.8 -10.4849 l 0.3 -0.230914 
h 0.5 
M-10.8 -9.04259 l 0.3 0.281749 
h 0.5 
M5.63136e-17 -16.7 v 2.5 
M-3.9 -14.2 v -2.5 
M-5 -16.7 v 2.5 
M-8.9 -14.2 v -2.5 
M-4.42 0 v -1.927 
M2.32683e-16 0 v -1.927 
M-4.42 -1.927 h 4.42 
M-9.42 0 v -1.927 
M-5 0 v -1.927 
M-9.42 -1.927 h 4.42 
M-0.15 -15.9936 h 0.4 
M-0.15 -14.2 v -2.5 
M-9.15 -15.9936 h 0.4 
M-8.75 -14.2 v -2.5 
M-5.15 -15.9936 h 0.4 
M-5.15 -14.2 v -2.5 
M-4.15 -15.9936 h 0.4 
M-3.75 -14.2 v -2.5 
M-9.42 -0.9635 h 4.42 
M-4.42 -0.9635 h 4.42 
M-3.75 -14.4 h 3.6 
M-8.75 -14.4 h 3.6 
M-8.9 -14.2 h 3.9 
M-9.15 -16.6298 h 0.25 
M6.81214e-17 -16.6298 h 0.25 
M-3.9 -14.2 h 3.9 
M-4.15 -16.6298 h 0.25 
M-5 -16.6298 h 0.25 
" fill="none"/>
<path class="cns_pen_style2" d="M-10.7012 -4.41472 h 0.701185 
M-10.3878 -6.08528 h 0.387753 
M-10.8932 -6.4 v 1.92952 
M-10.8 -10.164 l 0.3 -0.0384267 
h 0.5 
M-10.8 -9.78966 l 0.3 -0.0384267 
h 0.5 
M-10 -16.6298 h 0.85 
M0.25 -16.6298 h 1.25 
M-4.75 -16.6298 h 0.6 
M-10 -13.0601 h 11.5 
M-10 -13.2899 h 11.5 
M-10 -0.3 h 11.5 
M-4.91489 -15.609 v -1.09104 
M0.0851125 -15.609 v -1.09104 
M-3.98511 -15.609 v -1.09104 
M-8.98511 -15.609 v -1.09104 
M-9.15 -13.9936 h 4.4 
M-4.15 -13.9936 h 4.4 
M-3.29542 -16.1787 v -0.512564 
M-0.604582 -16.1787 v -0.512564 
M-8.29542 -16.1787 v -0.512564 
M-2.89077 -16.2585 h 1.88155 
M-7.89077 -16.2585 h 1.88155 
M-5.60458 -16.1787 v -0.512564 
" fill="none"/>
<path class="cns_pen_style1" d="M-10.9 -6.4 v 1.91565 
M-10.7451 -4.32943 h 0.745083 
M-10.9 -6.4 h 0.9 
M-10.7012 -4.41472 l 0.313432 -1.67057 
M-2.8 4 h 1 
M-2.8 2.1684e-16 v 4 
M-1.8 2.1684e-16 v 4 
M-7.8 2.1684e-16 v 4 
h 1 
M-6.8 2.1684e-16 v 4 
M-10.5 -10.9 l -0.3 0.3 
M-10 -10.9 h -0.5 
M-10.8 -9 l 0.3 0.3 
M-10.8 -9 v -1.6 
M-10.5 -8.7 h 0.5 
M-10.5 -8.7 v -2.2 
M-5 -7.46795 l -0.566987 -0.982051 
M-5 -3.26536 v -4.20259 
M-5.29754 -2.75 A 0.5 0.5 0 0 1 -5.73056 -2.5
M-1.25 -8.91 v -1.49 
M-1.04 -8.7 A 0.21 0.21 0 0 1 -1.25 -8.91
M-5.29754 -2.75 l 0.297543 -0.515359 
M-6.25 -8.91 v -1.49 
M-3.9 -2.5 h 3.16944 
M-6.04 -8.7 A 0.21 0.21 0 0 1 -6.25 -8.91
M-6 -8.7 A 0.5 0.5 0 0 1 -5.56699 -8.45
M-3.91301 -8.45 l -0.42 0.727461 
M-3.91301 -8.45 A 0.5 0.5 0 0 1 -3.53634 -8.69682
M-3.35 -8.90548 A 0.21 0.21 0 0 1 -3.53634 -8.69682
M-3.35 -10.4 A 0.3 0.3 0 0 1 -3.05 -10.7
M-1.55 -10.7 h -1.5 
M-1.55 -10.7 A 0.3 0.3 0 0 1 -1.25 -10.4
M-0.297543 -2.75 l 0.297543 -0.515359 
M-3.9 -2.5 A 0.5 0.5 0 0 1 -4.4 -3
M-0.297543 -2.75 A 0.5 0.5 0 0 1 -0.730555 -2.5
M-6.55 -10.7 A 0.3 0.3 0 0 1 -6.25 -10.4
M2.96977e-16 -3.26536 v -4.20259 
M-4.4 -7.47254 A 0.5 0.5 0 0 1 -4.33301 -7.72254
M-3.35 -10.4 v 1.49452 
M-4.4 -7.47254 v 4.47254 
M-1 -8.7 A 0.5 0.5 0 0 1 -0.566987 -8.45
M2.69221e-16 -7.46795 l -0.566987 -0.982051 
M-9.4 -7.47254 v 4.47254 
M-9.4 -7.47254 A 0.5 0.5 0 0 1 -9.33301 -7.72254
M-8.35 -8.90548 A 0.21 0.21 0 0 1 -8.53634 -8.69682
M-4.59401 -7.47254 A 0.694008 0.694008 0 0 1 -4.50103 -7.81954
M-4.08103 -8.547 l -0.42 0.727461 
M-4.08103 -8.547 A 0.694008 0.694008 0 0 1 -3.5582 -8.88959
M-3.54401 -10.4 v 1.49452 
M-3.54401 -10.4 A 0.494008 0.494008 0 0 1 -3.05 -10.894
M-1.55 -10.894 h -1.5 
M-1.55 -10.894 A 0.494008 0.494008 0 0 1 -1.05599 -10.4
M-1.05599 -8.91 v -1.49 
M-1 -8.89401 A 0.694008 0.694008 0 0 1 -0.398971 -8.547
M0.194008 -7.51993 l -0.592979 -1.02707 
M0.194008 -3.21337 v -4.30656 
M-0.129527 -2.653 l 0.323535 -0.560379 
M-0.129527 -2.653 A 0.694008 0.694008 0 0 1 -0.730555 -2.30599
M-3.9 -2.30599 h 3.16944 
M-3.9 -2.30599 A 0.694008 0.694008 0 0 1 -4.59401 -3
M-4.59401 -7.47254 v 4.47254 
M-9.59401 -7.47254 A 0.694008 0.694008 0 0 1 -9.50103 -7.81954
M-6.55 -10.894 A 0.494008 0.494008 0 0 1 -6.05599 -10.4
M-6.05599 -8.91 v -1.49 
M-6 -8.89401 A 0.694008 0.694008 0 0 1 -5.39897 -8.547
M-4.80599 -7.51993 l -0.592979 -1.02707 
M-4.80599 -3.21337 v -4.30656 
M-5.12953 -2.653 l 0.323535 -0.560379 
M-5.12953 -2.653 A 0.694008 0.694008 0 0 1 -5.73056 -2.30599
M-9.59401 -7.47254 v 4.47254 
M-8.91301 -8.45 A 0.5 0.5 0 0 1 -8.53634 -8.69682
M-9.08103 -8.547 A 0.694008 0.694008 0 0 1 -8.5582 -8.88959
M-6.55 -10.7 h -1.5 
M-6.55 -10.894 h -1.5 
M-8.35 -10.4 v 1.49452 
M-8.54401 -10.4 v 1.49452 
M-8.35 -10.4 A 0.3 0.3 0 0 1 -8.05 -10.7
M-8.54401 -10.4 A 0.494008 0.494008 0 0 1 -8.05 -10.894
M1.5 0 v -16.7 
M-10 0 v -16.7 
M-8.91301 -8.45 l -0.42 0.727461 
M-9.08103 -8.547 l -0.42 0.727461 
M-10 0 h 11.5 
M-8.9 -2.5 A 0.5 0.5 0 0 1 -9.4 -3
M-8.9 -2.30599 A 0.694008 0.694008 0 0 1 -9.59401 -3
M-8.9 -2.5 h 3.16944 
M-8.9 -2.30599 h 3.16944 
M-4.15 -13.9 h 4.4 
M-9.15 -13.9 h 4.4 
M-4.15 -16.7 v 2.8 
M-9.15 -16.7 v 2.8 
M-4.75 -16.7 v 2.8 
M0.25 -16.7 v 2.8 
M-10 -16.7 h 11.5 
M-9.15 -14.6552 l 0.0152212 -0.292529 
l 0.0455478 -0.290303 
l 0.0755277 -0.285867 
M-4.91489 -15.609 l 0.0844695 0.2841 
l 0.0546391 0.289196 
l 0.0243929 0.292092 
M-4.15 -14.6552 l 0.0152212 -0.292529 
l 0.0455478 -0.290303 
l 0.0755277 -0.285867 
M0.0851125 -15.609 l 0.0844695 0.2841 
l 0.0546391 0.289196 
l 0.0243929 0.292092 
M-3.29542 -16.1787 l 0.404644 -0.0798091 
M-1.00923 -16.2585 l 0.404644 0.0798091 
M-1.9638 -16.4531 l -0.422191 -0.0926212 
M-1.51077 -16.5464 l -0.425425 0.0933041 
M-8.29542 -16.1787 l 0.404644 -0.0798091 
M-1.49665 -16.3506 l 0.243645 0.0490468 
M-2.64772 -16.3015 l 0.244366 -0.0491845 
M-7.64772 -16.3015 l 0.244366 -0.0491845 
M-6.9638 -16.4531 l -0.422191 -0.0926212 
M-6.51077 -16.5464 l -0.425425 0.0933041 
M-6.49665 -16.3506 l 0.243645 0.0490468 
M-6.00923 -16.2585 l 0.404644 0.0798091 
" fill="none"/>
<path class="cns_pen_style3" d="M-9.27096 -16.7 l -0.00228382 0.00190265 
l -0.00226644 0.00569347 
l -0.00223181 0.00944096 
l -0.00218019 0.0131166 
l -0.00211198 0.0166924 
l -0.0020277 0.0201412 
l -0.00192799 0.0234367 
l -0.0018136 0.0265538 
l -0.00168541 0.0294688 
l -0.0015444 0.0321596 
l -0.00139163 0.0346056 
l -0.00122826 0.0367882 
l -0.00105556 0.0386909 
l -0.000874812 0.0402991 
l -0.000687412 0.0416005 
l -0.00049478 0.0425854 
l -0.000298382 0.0432462 
v 0.0435778 
M-4.27096 -16.7 l -0.00228382 0.00190265 
l -0.00226644 0.00569347 
l -0.00223181 0.00944096 
l -0.00218019 0.0131166 
l -0.00211198 0.0166924 
l -0.0020277 0.0201412 
l -0.00192799 0.0234367 
l -0.0018136 0.0265538 
l -0.00168541 0.0294688 
l -0.0015444 0.0321596 
l -0.00139163 0.0346056 
l -0.00122826 0.0367882 
l -0.00105556 0.0386909 
l -0.000874812 0.0402991 
l -0.000687412 0.0416005 
l -0.00049478 0.0425854 
l -0.000298382 0.0432462 
v 0.0435779 
M-7.62462 -16.4 l -0.059046 -0.0813736 
M-2.62462 -16.4 l -0.059046 -0.0813736 
M-8.4 -1.27455 l -0.10974 0.132207 
l -0.119524 0.123586 
M-3.4 -1.27455 l -0.10974 0.132207 
l -0.119524 0.123586 
M-10 -4.70802 l -0.00869896 0.0174311 
l -0.0260307 0.0172985 
l -0.0431643 0.0170342 
l -0.0599694 0.0166402 
l -0.0763181 0.0161196 
l -0.0920859 0.0154763 
l -0.107153 0.0147153 
l -0.121405 0.0138422 
l -0.134732 0.0128638 
l -0.0478742 0.00406792 
M-10.7174 -6.34549 l 0.138967 0.0125143 
l 0.125971 0.0135263 
l 0.112017 0.0144354 
l 0.0972104 0.0152346 
l 0.0816639 0.0159178 
l 0.0654959 0.01648 
l 0.0488294 0.0169167 
l 0.0317912 0.0172246 
l 0.0145112 0.0174015 
l 0.000974157 0.00583813 
M-10.7174 -6.34549 l -0.0602742 -0.0127739 
l -0.0509065 -0.0197546 
l -0.0455958 -0.0186719 
l -0.0159377 -0.00331021 
M-10.8645 -4.51483 l 0.0477515 -0.0202059 
l 0.0608569 -0.0210172 
l 0.0384488 -0.00647281 
M-10.9 -4.48435 l 0.00076106 -0.00467066 
l 0.00227739 -0.00463512 
l 0.00377639 -0.00456429 
l 0.00524664 -0.00445873 
l 0.00667697 -0.00431924 
l 0.00805648 -0.00414687 
l 0.00871671 -0.00368962 
" fill="none"/>
<path class="cns_pen_style2" d="M-1.05599 -8.91 h -0.194008 
M-5.12953 -2.653 l -0.168016 -0.0970041 
M-6.05599 -8.91 h -0.194008 
M-6.04 -8.89401 v 0.194008 
M-5.39897 -8.547 l -0.168016 0.0970041 
M-6 -8.89401 v 0.194008 
M-4.08103 -8.547 l 0.168016 0.0970041 
M-3.5582 -8.88959 l 0.0218601 0.192773 
M-3.05 -10.894 v 0.194008 
M-1.05599 -10.4 h -0.194008 
M-1.55 -10.894 v 0.194008 
M-3.9 -2.30599 v -0.194008 
M-0.730555 -2.30599 v -0.194008 
M-0.129527 -2.653 l -0.168016 -0.0970041 
M-1.04 -8.89401 v 0.194008 
M-6.05599 -10.4 h -0.194008 
M-4.50103 -7.81954 l 0.168016 0.0970041 
M-3.54401 -10.4 h 0.194008 
M-3.54401 -8.90548 h 0.194008 
M-4.59401 -7.47254 h 0.194008 
M-4.59401 -3 h 0.194008 
M-1 -8.89401 v 0.194008 
M-0.398971 -8.547 l -0.168016 0.0970041 
M-9.59401 -7.47254 h 0.194008 
M-8.5582 -8.88959 l 0.0218601 0.192773 
M-6.55 -10.894 v 0.194008 
M-8.54401 -8.90548 h 0.194008 
M-8.05 -10.894 v 0.194008 
M-8.54401 -10.4 h 0.194008 
M-9.08103 -8.547 l 0.168016 0.0970041 
M-9.50103 -7.81954 l 0.168016 0.0970041 
M-9.59401 -3 h 0.194008 
M-8.9 -2.30599 v -0.194008 
M-5.73056 -2.30599 v -0.194008 
" fill="none"/>
<path class="cns_pen_style1" d="M-10.8932 -4.47048 l -0.00377639 -0.00456429 
l -0.00227739 -0.00463512 
l -0.00076106 -0.00467066 
M-10.7451 -4.32943 l 0.00467066 -0.00076106 
l 0.00463512 -0.00227739 
l 0.00456429 -0.00377639 
l 0.00445873 -0.00524664 
l 0.00431924 -0.00667697 
l 0.00414687 -0.00805648 
l 0.00394295 -0.00937467 
l 0.00370902 -0.0106215 
l 0.00344685 -0.0117875 
l 0.00315846 -0.0128638 
l 0.00284603 -0.0138422 
M-10.8932 -4.47048 l 0.134232 0.134232 
l 0.00456429 0.00377639 
l 0.00463512 0.00227739 
l 0.00467066 0.00076106 
M-10.3878 -6.08528 l 0.00251194 -0.0147153 
l 0.00215873 -0.0154763 
l 0.00178909 -0.0161196 
l 0.00140583 -0.0166402 
l 0.00101188 -0.0170342 
l 0.000610225 -0.0172985 
l 0.000203926 -0.0174311 
l -0.000203926 -0.0174311 
l -0.000610225 -0.0172985 
l -0.00101188 -0.0170342 
l -0.00140583 -0.0166402 
l -0.00178909 -0.0161196 
l -0.00215873 -0.0154763 
l -0.00251194 -0.0147153 
l -0.00284603 -0.0138422 
l -0.00315846 -0.0128638 
l -0.00344685 -0.0117875 
l -0.00370902 -0.0106215 
l -0.00394295 -0.00937467 
l -0.00414687 -0.00805648 
l -0.00431924 -0.00667697 
l -0.00445873 -0.00524664 
l -0.00456429 -0.00377639 
l -0.00463512 -0.00227739 
l -0.00467066 -0.00076106 
M-4.80599 -7.51993 l -0.194008 0.0519843 
M-4.80599 -3.21337 l -0.194008 -0.0519843 
M-6 -8.7 h -0.04 
M-1 -8.7 h -0.04 
M0.194008 -3.21337 l -0.194008 -0.0519843 
M0.194008 -7.51993 l -0.194008 0.0519843 
M-3.54401 -8.90548 A 0.0159918 0.0159918 0 0 1 -3.5582 -8.88959
M-1.04 -8.89401 A 0.0159918 0.0159918 0 0 1 -1.05599 -8.91
M-1 -8.89401 h -0.04 
M-8.54401 -8.90548 A 0.0159918 0.0159918 0 0 1 -8.5582 -8.88959
M-6.04 -8.89401 A 0.0159918 0.0159918 0 0 1 -6.05599 -8.91
M-6 -8.89401 h -0.04 
M-9.0137 -15.5239 l 0.0285908 -0.0850401 
M-4.75139 -14.7436 l 0.00138608 0.0883517 
M-5.60458 -16.1787 l 0.0829172 0.022754 
l 0.0802383 0.0287313 
l 0.0769487 0.03449 
l 0.0730734 0.0399862 
l 0.0686421 0.0451781 
l 0.0636883 0.0500261 
l 0.0582498 0.0544934 
l 0.0523681 0.058546 
l 0.0460877 0.062153 
l 0.0394566 0.065287 
l 0.0325252 0.0679241 
l 0.015499 0.0401467 
M-8.98511 -15.609 l 0.0284142 -0.0692104 
l 0.0354949 -0.066869 
l 0.0423054 -0.0640187 
l 0.0487939 -0.0606812 
l 0.0549111 -0.0568819 
l 0.0606103 -0.0526497 
l 0.0658483 -0.0480168 
l 0.0705852 -0.0430184 
l 0.0747848 -0.0376926 
l 0.0784153 -0.03208 
l 0.081449 -0.0262233 
l 0.0480822 -0.012374 
M-4.0137 -15.5239 l 0.0285908 -0.0850401 
M0.248614 -14.7436 l 0.00138608 0.0883517 
M-0.604582 -16.1787 l 0.0829172 0.022754 
l 0.0802383 0.0287313 
l 0.0769487 0.03449 
l 0.0730734 0.0399862 
l 0.0686421 0.0451781 
l 0.0636883 0.0500261 
l 0.0582498 0.0544934 
l 0.0523681 0.058546 
l 0.0460877 0.062153 
l 0.0394566 0.065287 
l 0.0325252 0.0679241 
l 0.015499 0.0401467 
M-3.98511 -15.609 l 0.0284142 -0.0692104 
l 0.0354949 -0.066869 
l 0.0423054 -0.0640187 
l 0.0487939 -0.0606812 
l 0.0549111 -0.0568819 
l 0.0606103 -0.0526497 
l 0.0658483 -0.0480168 
l 0.0705852 -0.0430184 
l 0.0747848 -0.0376926 
l 0.0784153 -0.03208 
l 0.081449 -0.0262233 
l 0.0480822 -0.012374 
M-3.29542 -16.6912 l -0.0869654 -0.0060125 
l -0.0848989 -0.00274338 
M-1.95 -16.45 l -0.0138013 -0.00308601 
M-2.38599 -16.5457 l -0.212156 -0.0432675 
l -0.212217 -0.0391472 
l -0.242639 -0.0373228 
l -0.242414 -0.0257994 
M-0.604582 -16.6912 l -0.241282 0.0256488 
l -0.243771 0.0374734 
l -0.210149 0.0387432 
l -0.210989 0.0429887 
M-1.9362 -16.4531 l -0.0138013 0.00308601 
M-0.432718 -16.7 l -0.0840551 0.0026955 
l -0.0878091 0.00606038 
M-1.95 -16.45 l 0.0138013 0.00308601 
l 0.219632 0.04884 
l 0.219918 0.047439 
M-1.253 -16.3016 l 0.243778 0.0430993 
M-2.89077 -16.2585 l 0.243057 -0.0429616 
M-2.40335 -16.3506 l 0.219501 -0.0473473 
l 0.220049 -0.0489317 
l 0.0138013 -0.00308601 
M-7.89077 -16.2585 l 0.243057 -0.0429616 
M-7.40335 -16.3506 l 0.219501 -0.0473473 
l 0.220049 -0.0489317 
l 0.0138013 -0.00308601 
M-8.29542 -16.6912 l -0.0869654 -0.0060125 
l -0.0848989 -0.00274338 
M-6.95 -16.45 l -0.0138013 -0.00308601 
M-7.38599 -16.5457 l -0.212156 -0.0432675 
l -0.212217 -0.0391472 
l -0.242639 -0.0373228 
l -0.242414 -0.0257994 
M-5.43272 -16.7 l -0.0840551 0.0026955 
l -0.0878091 0.00606038 
l -0.241282 0.0256488 
l -0.243771 0.0374734 
l -0.210375 0.0387766 
l -0.210763 0.0429553 
M-6.9362 -16.4531 l -0.0138013 0.00308601 
l 0.0138013 0.00308601 
l 0.219632 0.04884 
l 0.219918 0.047439 
M-6.253 -16.3016 l 0.243778 0.0430993 
" fill="none"/>
</svg>
