<?xml version="1.0" standalone="no"?>
<!DOCTYPE svg PUBLIC "-//DTD SVG 1.1//EN" "http://w3.org/Graphics/SVG/1.1/DTD/svg11.dtd">
<svg xmlns="http://www.w3.org/2000/svg" version="1.1" width="192mm" height="208.25mm" viewBox="-11.1 -16.825 19.2 20.825">
<defs>
<style type="text/css"><![CDATA[
.cns_pen_style1 {stroke: #000000;stroke-width: 0.05;}
.cns_pen_style2 {stroke: #808080;stroke-width: 0.025;}
.cns_pen_style3 {stroke: #c6c6c6;stroke-width: 0.025;stroke-dasharray: 0.2, 0.1}
.cns_pen_style4 {stroke: #ff0000;stroke-width: 0.025;stroke-dasharray: 0.04, 0.1, 0.2, 0.1}
.cns_text {stroke-width: 0.0001;}
]]></style>
</defs>

<path class="cns_pen_style4" d="M-9.25 -16.825 v 2.75 
M-6.17 -1.7 h 2.94 
M-4.7 -0.23 v -2.94 
" fill="none"/>
<path class="cns_pen_style3" d="M-3.31853 -1.927 A 1.4 1.4 0 1 1 -6.08147 -1.927
M4.85 -3.26536 h -2.5 
M4.85 -7.46795 h -2.5 
M4.85 -2.75 h -2.5 
M4.85 -8.7 h -2.5 
M5.2 -8.91 h -2.85 
M5.2 -8.89401 l -0.35 0.194008 
M0.4 -1.927 v 1.927 
M-0.4 -1.927 v 1.927 
M-8.6 -1.63845 v 1.63845 
M-7.8 -1.927 v 1.927 
M-10.3 -16.4 v 2.2 
M-8.6 -16.4 h -1.7 
M5.2 -8.90548 h -2.85 
M4.85 -10.7 h -2.5 
M5.2 -10.4 h -2.85 
M-9.83284 -13 v -3.7 
M-8.59617 -1.927 A 1.31 1.31 0 0 1 -11.1 -1.27455
M4.85 -8.69682 h -2.5 
M5.2 -10.894 l -0.35 0.194008 
M5.2 -8.88959 l -0.35 0.192773 
M-9.69142 -13 v -3.7 
M-9.45858 -13 v -3.7 
M-5.74264 -14.9426 A 6 6 0 0 1 -1.5 -16.7
M-5.74264 -14.9426 l -0.742641 0.742641 
M-2.4746 -14.2 A 1.6 1.6 0 0 1 -1.7 -14.4
h 5.4699 
M-8.4 -14.2 v -2.5 
M-8.6 -14.2 v -2.5 
M-10.3 -14.2 h 14.3082 
M4.85 -8.45 h -2.5 
M-11.1 -13 h 1.7 
M-10.2 -13 v -3.7 
M-9.4 -13 v -3.7 
M4.85 -7.72254 h -2.5 
M5.2 -7.47254 h -2.85 
M-5.33842 0 A 1.81592 1.81592 0 0 1 -6.50168 -1.927
M-2.89832 -1.927 A 1.81592 1.81592 0 0 1 -4.06158 0
M5.2 -3 h -2.85 
M4.85 -2.5 h -2.5 
M2.35 -10.7 v 8.2 
M-10.2897 0 A 1.84171 1.84171 0 0 1 -11.1 -0.402898
M-8.06267 -1.927 A 1.84171 1.84171 0 0 1 -9.51026 0
M0.998452 -1.927 h -12.0985 
M3.8 0 A 1.5 1.5 0 0 1 2.39923 -0.9635
M0.998452 -1.927 A 1.5 1.5 0 0 1 2.39923 -0.9635
M4.85 -10.7 v 8.2 
M5.2 -2.30599 l -0.35 -0.194008 
" fill="none"/>
<path class="cns_pen_style2" d="M7.91558 -16.1787 v -0.512564 
M7.23662 -15.609 v -1.09104 
M6.1 -16.7 v 2.04478 
M-4.28623 -6.4 v 1.92952 
M-4.53723 -6.34549 v 1.78296 
" fill="none"/>
<path class="cns_pen_style1" d="M-0.4 4 h 0.8 
M0.4 -2.1684e-16 v 4 
M-0.4 -6.50521e-16 v 4 
M-8.6 -6.50521e-16 v 4 
h 0.8 
M-7.8 -2.1684e-16 v 4 
M3.7699 -14.4 h 0.543011 
M5.31149 -13.9936 l 2.69921 -2.26491 
M2.41375 -15.9936 A 0.4 0.4 0 0 1 2.67086 -16.7
M2.41375 -15.9936 l 2.38351 2 
M5.31149 -13.9936 A 0.4 0.4 0 0 1 4.79726 -13.9936
M5.2 -0.3 A 0.3 0.3 0 0 1 4.9 0
M-11.1 -16.2 v 15.9 
M-11.1 -16.2 A 0.5 0.5 0 0 1 -10.6 -16.7
M-10.8 -7.58942e-16 h 15.7 
M5.2 -0.3 v -12.7601 
M5.09284 -13.2899 l -3.98033 -3.33989 
M7.85 -16.7 h -18.45 
M-10.8 -7.58942e-16 A 0.3 0.3 0 0 1 -11.1 -0.3
M-4.6 -6.2 v 1.49198 
M-1.53739 -9.12433 A 0.4 0.4 0 0 1 -1.65536 -9.80788
M-1.53739 -9.12433 l 0.993916 0.363498 
M-1.43435 -9.40608 l 0.993916 0.363498 
M-0.560713 -10.7158 l -1.09464 0.907885 
M-0.369195 -10.4849 l -1.09464 0.907885 
M0.791763 -9.82809 A 1 1 0 0 1 -0.543473 -8.76084
M0.494234 -9.78966 A 0.7 0.7 0 0 1 -0.440431 -9.04259
M-0.560713 -10.7158 A 0.8 0.8 0 0 1 0.74341 -10.2025
M-0.369195 -10.4849 A 0.5 0.5 0 0 1 0.445881 -10.164
M-4.45176 -4.51483 l 0.666494 0.178587 
M-2.56376 -6.4 h -1.83624 
M-3.56968 -4.41472 l 1.16975 -1.67057 
" fill="none"/>
<path class="cns_pen_style3" d="M5.2 -3.21337 l -0.35 -0.0519843 
M5.2 -7.51993 l -0.35 0.0519843 
M5.2 -2.653 l -0.35 -0.0970041 
M-10.4732 -16.7 l 0.173205 0.3 
M5.2 -8.547 l -0.35 0.0970041 
M5.2 -7.81954 l -0.35 0.0970041 
" fill="none"/>
<path class="cns_pen_style2" d="M-1.43435 -9.40608 l -0.103042 0.281749 
M-1.46384 -9.57697 l -0.191517 -0.230914 
M0.494234 -9.78966 l 0.297529 -0.0384267 
M-0.440431 -9.04259 l -0.103042 0.281749 
M-0.369195 -10.4849 l -0.191517 -0.230914 
M0.445881 -10.164 l 0.297529 -0.0384267 
" fill="none"/>
<path class="cns_pen_style1" d="M8.1 -16.45 v -0.00308601 
l -0.0190261 -0.0926212 
l -0.0555337 -0.0824147 
l -0.0486001 -0.0373228 
l -0.0612368 -0.0257994 
M8.0107 -16.2585 l 0.068708 -0.0921461 
l 0.0205761 -0.096279 
v -0.00308601 
M7.91558 -16.6912 l -0.0655841 -0.00875589 
M5.09284 -13.2899 A 0.3 0.3 0 0 1 5.2 -13.0601
M0.919671 -16.7 A 0.3 0.3 0 0 1 1.11251 -16.6298
M-4.53723 -6.34549 l -0.012158 0.0125143 
l -0.0110211 0.0135263 
l -0.00980023 0.0144354 
l -0.00850481 0.0152346 
l -0.00714466 0.0159178 
l -0.00573014 0.01648 
l -0.00427201 0.0169167 
l -0.00278137 0.0172246 
l -0.00126956 0.0174015 
v 0.00583813 
M-4.6 -4.70802 l 0.00076106 0.0174311 
l 0.00227739 0.0172985 
l 0.00377639 0.0170342 
l 0.00524664 0.0166402 
l 0.00667697 0.0161196 
l 0.00805648 0.0154763 
l 0.00937467 0.0147153 
l 0.0106215 0.0138422 
l 0.0117875 0.0128638 
l 0.00418845 0.00406792 
M-1.43435 -9.40608 A 0.1 0.1 0 0 1 -1.46384 -9.57697
M0.791763 -9.82809 l -0.0483525 -0.374382 
M0.494234 -9.78966 l -0.0483525 -0.374382 
M-3.78527 -4.33625 l 0.0170342 0.00377639 
l 0.0172985 0.00227739 
l 0.0174311 0.00076106 
l 0.0174311 -0.00076106 
l 0.0172985 -0.00227739 
l 0.0170342 -0.00377639 
l 0.0166402 -0.00524664 
l 0.0161196 -0.00667697 
l 0.0154763 -0.00805648 
l 0.0147153 -0.00937467 
l 0.0138422 -0.0106215 
l 0.0128638 -0.0117875 
l 0.0117875 -0.0128638 
l 0.0106215 -0.0138422 
M-2.39993 -6.08528 l 0.00937467 -0.0147153 
l 0.00805648 -0.0154763 
l 0.00667697 -0.0161196 
l 0.00524664 -0.0166402 
l 0.00377639 -0.0170342 
l 0.00227739 -0.0172985 
l 0.00076106 -0.0174311 
l -0.00076106 -0.0174311 
l -0.00227739 -0.0172985 
l -0.00377639 -0.0170342 
l -0.00524664 -0.0166402 
l -0.00667697 -0.0161196 
l -0.00805648 -0.0154763 
l -0.00937467 -0.0147153 
l -0.0106215 -0.0138422 
l -0.0117875 -0.0128638 
l -0.0128638 -0.0117875 
l -0.0138422 -0.0106215 
l -0.0147153 -0.00937467 
l -0.0154763 -0.00805648 
l -0.0161196 -0.00667697 
l -0.0166402 -0.00524664 
l -0.0170342 -0.00377639 
l -0.0172985 -0.00227739 
l -0.0174311 -0.00076106 
M-4.53723 -6.34549 l 0.0149515 -0.0127739 
l 0.0311242 -0.0197546 
l 0.0549202 -0.0186719 
l 0.0362371 -0.00331021 
M-4.45176 -4.51483 l -0.0486263 -0.0202059 
l -0.0296389 -0.0210172 
l -0.00720397 -0.00647281 
" fill="none"/>
</svg>
