<?xml version="1.0" standalone="no"?>
<!DOCTYPE svg PUBLIC "-//DTD SVG 1.1//EN" "http://w3.org/Graphics/SVG/1.1/DTD/svg11.dtd">
<svg xmlns="http://www.w3.org/2000/svg" version="1.1" width="192mm" height="124mm" viewBox="-11.1 -1.5 19.2 12.4">
<defs>
<style type="text/css"><![CDATA[
.cns_pen_style1 {stroke: #000000;stroke-width: 0.05;}
.cns_pen_style2 {stroke: #808080;stroke-width: 0.025;}
.cns_pen_style3 {stroke: #c6c6c6;stroke-width: 0.025;stroke-dasharray: 0.2, 0.1}
.cns_pen_style4 {stroke: #ff0000;stroke-width: 0.025;stroke-dasharray: 0.04, 0.1, 0.2, 0.1}
.cns_text {stroke-width: 0.0001;}
]]></style>
</defs>

<path class="cns_pen_style4" d="M-4.7 4.62 v -4.84 
M-4.7 9.62 v -4.84 
M-9.9 4.62 v -4.84 
M-9.9 9.62 v -4.84 
M-10.5344 1.8 h 2.56873 
M-9.25 3.08437 v -2.56873 
M-10.5344 6.8 h 2.56873 
M-9.25 8.08437 v -2.56873 
" fill="none"/>
<path class="cns_pen_style3" d="M3.8 9.42 v -4.42 
M3.8 4.42 v -4.42 
M4.9 10 v -11.5 
M-10.8 -4.64718e-32 v -1.5 
M-10.8 5 v -0.58 
M-10.8 10 v -0.58 
M2.39923 4.42 v -4.42 
M2.39923 9.42 v -4.42 
M0.4 2.8 v -1 
M-7.8 2.8 v -1 
M-0.4 2.8 h 0.8 
M-0.4 1.8 v 1 
M0.998452 4.42 v -4.42 
M0.4 1.8 h -0.8 
M-11.1 4.4 h 3.04171 
M0.4 6.8 h -0.8 
M-8.59617 7.8 h 0.796171 
M-7.8 1.8 h -0.8 
M-8.59617 2.8 h 0.796171 
M3.8 4.42 h -14.9 
M-6.08147 -1.17995e-16 l -0.420204 4.4 
M-2.89832 4.4 l -0.420204 -4.4 
M-6.1 -1.04095e-16 l -0.415922 4.4 
M-2.88408 4.4 l -0.415922 -4.4 
M-2.88408 4.4 h -3.63184 
M-0.4 6.8 v 1 
M-8.59617 1.8 v -1.8 
M-8.6 2.61965 v -0.819651 
M-8.59617 3.4 v -0.6 
M-8.59 3.4 v -0.6 
M-8.59 1.8 v -1.8 
M-8.6 -1.10218e-16 h -2.5 
M-7.8 6.8 h -0.8 
M-11.1 3.4 h 2.51 
M-8.06267 4.4 l -0.533496 -1 
M-8.05829 4.4 l -0.531709 -1 
M-0.4 7.8 h 0.8 
v -1 
M-7.8 7.8 v -1 
M0.998452 9.42 v -4.42 
M-8.59617 8.4 v -0.6 
M-8.59617 6.8 v -1.8 
M-8.6 7.61965 v -0.819651 
M-8.59 8.4 v -0.6 
M-8.59 6.8 v -1.8 
M-8.6 5 h -2.5 
M-8.06267 9.4 l -0.533496 -1 
M-11.1 8.4 h 2.51 
M-8.05829 9.4 l -0.531709 -1 
M-8.05829 9.4 h -3.04171 
M3.8 9.42 h -14.9 
M-6.08147 5 l -0.420204 4.4 
M-2.89832 9.4 l -0.420204 -4.4 
M-6.1 5 l -0.415922 4.4 
M-2.88408 9.4 l -0.415922 -4.4 
M-2.88408 9.4 h -3.63184 
M5.2 0.730555 h -2.85 
M5.2 5.73056 h -2.85 
M4.85 0.297543 h -2.5 
M5.2 0.129527 l -0.35 0.168016 
M4.85 5.29754 h -2.5 
M5.2 5.12953 l -0.35 0.168016 
M-3.56968 10.7012 v -0.701185 
M-3.78527 10.759 v -0.758953 
M-4.45176 10.8645 v -0.864488 
M-2.39993 10.3878 v -0.387753 
M4.85 -4.29524e-16 h -2.57914 
M4.85 5 h -2.57914 
M5.2 -0.194008 l -0.35 0.194008 
M5.2 4.80599 l -0.35 0.194008 
M4.85 4.33301 h -2.5 
M4.85 4.4 h -2.5 
M4.85 9.33301 h -2.5 
M4.85 9.4 h -2.5 
M5.2 9.50103 l -0.35 -0.168016 
M5.2 9.59401 l -0.35 -0.194008 
M5.2 4.50103 l -0.35 -0.168016 
M5.2 4.59401 l -0.35 -0.194008 
M4.85 3.91301 h -2.5 
M4.85 0.566987 h -2.5 
M4.85 5.56699 h -2.5 
M4.85 8.91301 h -2.5 
M5.2 9.08103 l -0.35 -0.168016 
M5.2 4.08103 l -0.35 -0.168016 
M5.2 0.398971 l -0.35 0.168016 
M5.2 5.39897 l -0.35 0.168016 
M5.2 6 h -2.85 
M5.2 1 h -2.85 
M4.85 3.53634 h -2.5 
M4.85 8.53634 h -2.5 
M5.2 1.04 h -2.85 
M5.2 6.04 h -2.85 
M-1.53739 10.5 v -0.5 
M-0.543473 10.5 v -0.5 
M5.2 6.55 h -2.85 
M4.85 6.25 h -2.5 
M5.2 1.55 h -2.85 
M4.85 1.25 h -2.5 
M2.35 5 v 4.4 
M5.2 8.05 h -2.85 
M4.85 8.35 h -2.5 
M5.2 3.05 h -2.85 
M4.85 3.35 h -2.5 
M2.35 -4.29524e-16 v 4.4 
M4.85 -4.29524e-16 v 4.4 
M5.2 3.54401 l -0.35 -0.194008 
M4.85 5 v 4.4 
M5.2 8.54401 l -0.35 -0.194008 
M5.2 1.05599 l -0.35 0.194008 
M5.2 6.05599 l -0.35 0.194008 
M5.2 4.15 v -4.4 
M5.2 9.15 v -4.4 
M5.31149 9.15 v -4.4 
M4.79726 9.15 v -4.4 
M5.31149 4.15 v -4.4 
M4.79726 4.15 v -4.4 
M-2.4746 3.75 v -3.6 
M-2.4746 8.75 v -3.6 
M4.31291 3.75 v -3.6 
M-1.7 3.75 v -3.6 
M-1.7 8.75 v -3.6 
M4.31291 8.75 v -3.6 
M4.31291 3.75 h -1.64204 
M4.31291 0.15 h -1.64204 
M4.31291 8.75 h -1.64204 
M4.31291 5.15 h -1.64204 
M8.0107 7.89077 v -1.88155 
M8.0107 2.89077 v -1.88155 
M5.2 8.9 h -2.92914 
M5.2 3.9 h -2.92914 
M4.00825 8.9 v -3.9 
M5.09284 4.15 v -4.4 
M5.09284 9.15 v -4.4 
M4.00825 3.9 v -3.9 
M2.41375 5.15 v -0.4 
M2.41375 9.15 v -0.4 
M2.41375 4.15 v -0.4 
M2.41375 0.15 v -0.4 
" fill="none"/>
<path class="cns_pen_style2" d="M-2.56376 10.4317 v -0.431651 
M-4.4 10.8901 v -0.890145 
M0.494234 10.8 l 0.297529 -0.3 
v -0.5 
M-1.65536 10.5 v -0.5 
M-0.560713 10.5 v -0.5 
M0.74341 10.5 v -0.5 
M0.445881 10.8 l 0.297529 -0.3 
M5.09284 -0.25 v -1.25 
M5.09284 4.75 v -0.6 
M5.09284 10 v -0.85 
M0.919671 -1.02258e-15 v -1.5 
M1.11251 -1.01828e-15 v -1.5 
M-5.74264 8.75 v -3.6 
M-10.6 3.3 v -4.8 
M-10.6 8.3 v -4.02904 
M-10.6 10 v -0.729037 
M0.919671 5 v -1.1 
M1.11251 5 v -1.1 
M1.11251 10 v -1.1 
M0.919671 10 v -1.1 
M2.67086 0.15 v -0.4 
M2.67086 4.15 v -0.4 
M-5.74264 3.75 v -3.6 
M-1.5 3.75 v -3.6 
M2.67086 5.15 v -0.4 
M-1.5 8.75 v -3.6 
M2.67086 9.15 v -0.4 
M7.85 3.46728 v -3.03456 
M7.85 8.46728 v -3.03456 
" fill="none"/>
<path class="cns_pen_style1" d="M-2.36376 10.3781 l -1.92247 0.515124 
M-4.53723 10.7174 l -0.0627671 -0.717431 
M0.5 10.8 h -2 
M-1.8 10.5 l 0.3 0.3 
M0.8 10.5 h -2.6 
M-1.8 10 v 0.5 
M0.5 10.8 l 0.3 -0.3 
v -0.5 
M5.2 -0.25 v -1.25 
M5.2 4.75 v -0.6 
M5.2 10 v -0.85 
M-6.48528 8.75 v -3.6 
M-6.48528 3.75 v -3.6 
M-8.6 2.62462 v 1.07538 
M-8.6 2.62462 A 1.05 1.05 0 1 1 -8.6 0.975379
M-8.6 -1.02258e-15 v 0.975379 
M6.1 4.75 h -3.82914 
v 0.4 
M6.1 9.15 h -3.82914 
M2.27086 8.75 v 0.4 
M-10.2 4.25 l -0.9 0.047167 
M-10.2 9.25 l -0.9 0.047167 
M-9.83284 8.3 h -1.26716 
M-10.2 9.25 h 0.8 
v -0.517157 
M-8.4 8.9 h 10.6709 
M2.27086 5 h -10.8709 
v 0.975379 
M-8.6 7.62462 v 1.07538 
M-9.83284 3.3 h -1.26716 
M-8.4 3.9 h 10.6709 
M-8.6 2.83621 A 1.22321 1.22321 0 1 1 -8.6 0.76379
M2.27086 -9.58766e-16 h -10.8709 
M-9.4 4.25 v -0.517157 
M-10.2 4.25 h 0.8 
M6.1 4.15 h -3.82914 
M2.27086 3.75 v 0.4 
M5.2 -1.5 h -16.3 
M-8.6 7.62462 A 1.05 1.05 0 1 1 -8.6 5.97538
M-8.6 7.83621 A 1.22321 1.22321 0 1 1 -8.6 5.76379
M5.2 10 h -16.3 
v -11.5 
M6.1 -0.25 h -3.82914 
v 0.4 
M7.23662 3.98511 A 4 4 0 0 1 6.1 4.15
M7.85 3.46728 A 1 1 0 0 1 7.23662 3.98511
M7.23662 -0.0851125 A 1 1 0 0 1 7.85 0.432718
M6.1 -0.25 A 4 4 0 0 1 7.23662 -0.0851125
M2.67086 0.15 h -9.15615 
M2.67086 3.75 h -9.15615 
M6.1 4.75 A 4 4 0 0 1 7.23662 4.91489
M7.23662 8.98511 A 4 4 0 0 1 6.1 9.15
M7.85 8.46728 A 1 1 0 0 1 7.23662 8.98511
M7.23662 4.91489 A 1 1 0 0 1 7.85 5.43272
M2.67086 5.15 h -9.15615 
M2.67086 8.75 h -9.15615 
M8.09998 1.9638 l -0.0190261 0.422191 
M8.08067 1.51077 l 0.0193103 0.425425 
M8.09998 6.9638 l -0.0190261 0.422191 
M8.08067 6.51077 l 0.0193103 0.425425 
" fill="none"/>
<path class="cns_pen_style3" d="M-5.33842 4.4 l 0.094369 -0.327832 
l 0.0817449 -0.246187 
l 0.0964726 -0.240618 
l 0.090188 -0.176827 
l 0.0566282 -0.0866269 
l 0.068047 -0.0774677 
l 0.0575871 -0.0436625 
l 0.0684929 -0.0251832 
l 0.0553279 0.000956406 
l 0.0520387 0.0182718 
l 0.0765441 0.0573587 
l 0.0816854 0.100109 
l 0.0660311 0.111789 
l 0.105354 0.224546 
l 0.0865798 0.233114 
l 0.0735316 0.238264 
l 0.066209 0.239996 
M-10.2897 4.4 v 0 
l 0.168977 -0.0528687 
l 0.175125 -0.0244609 
l 0.177468 0.00825957 
l 0.173487 0.0390358 
l 0.0843382 0.0300646 
M-10.2897 9.4 l 0.145202 -0.0473478 
l 0.153396 -0.0267598 
l 0.178992 -0.000306535 
l 0.182242 0.0338701 
l 0.119638 0.040544 
M-5.33842 9.4 l 0.094369 -0.327832 
l 0.0817449 -0.246187 
l 0.0964726 -0.240618 
l 0.090188 -0.176827 
l 0.0566282 -0.0866269 
l 0.068047 -0.0774677 
l 0.0575871 -0.0436625 
l 0.0684929 -0.0251832 
l 0.0553279 0.000956406 
l 0.0520387 0.0182718 
l 0.0765441 0.0573587 
l 0.0816854 0.100109 
l 0.0660311 0.111789 
l 0.105354 0.224546 
l 0.0865798 0.233114 
l 0.0735316 0.238264 
l 0.066209 0.239996 
M5.2 8.5582 l -0.35 -0.0218601 
M5.2 3.5582 l -0.35 -0.0218601 
M-1.43435 10.8 l -0.103042 -0.3 
M-0.440431 10.8 l -0.103042 -0.3 
" fill="none"/>
<path class="cns_pen_style2" d="M-1.46384 10.8 l -0.191517 -0.3 
M-0.369195 10.8 l -0.191517 -0.3 
" fill="none"/>
<path class="cns_pen_style1" d="M-4.28623 10.8932 A 0.2 0.2 0 0 1 -4.4 10.8901
M-2.36376 10.3781 v -0.378061 
M-4.53723 10.7174 l 0.0149515 0.0602742 
l 0.0311242 0.0509065 
l 0.0549202 0.0455958 
l 0.0362371 0.0159377 
M-8.4 8.9 A 0.2 0.2 0 0 1 -8.6 8.7
M-9.83284 3.3 A 0.2 0.2 0 0 1 -9.69142 3.35858
M-9.45858 8.59142 A 0.2 0.2 0 0 1 -9.4 8.73284
M-9.45858 8.59142 l -0.232843 -0.232843 
M-8.4 3.9 A 0.2 0.2 0 0 1 -8.6 3.7
M-9.45858 3.59142 A 0.2 0.2 0 0 1 -9.4 3.73284
M-9.45858 3.59142 l -0.232843 -0.232843 
M-9.83284 8.3 A 0.2 0.2 0 0 1 -9.69142 8.35858
M7.91558 3.29542 l -0.0286495 0.0869654 
l -0.0369346 0.0848989 
M8.1 1.95 v 0.0138013 
M8.08095 2.38599 l -0.0231424 0.212156 
l -0.0323913 0.212217 
l -0.0486001 0.242639 
l -0.0612368 0.242414 
M7.91558 0.604582 l 0.0609806 0.241282 
l 0.0488563 0.243771 
l 0.0321206 0.210149 
l 0.023129 0.210989 
M8.09998 1.9362 v 0.0138013 
M7.85 0.432718 l 0.0366127 0.0840551 
l 0.0289715 0.0878091 
M7.91558 8.29542 l -0.0286495 0.0869654 
l -0.0369346 0.0848989 
M8.1 6.95 v 0.0138013 
M8.08095 7.38599 l -0.0231424 0.212156 
l -0.0323913 0.212217 
l -0.0486001 0.242639 
l -0.0612368 0.242414 
M7.91558 5.60458 l 0.0609806 0.241282 
l 0.0488563 0.243771 
l 0.0321206 0.210149 
l 0.023129 0.210989 
M8.09998 6.9362 v 0.0138013 
M7.85 5.43272 l 0.0366127 0.0840551 
l 0.0289715 0.0878091 
" fill="none"/>
</svg>
